<?xml version="1.0" standalone="no"?>
<!DOCTYPE svg PUBLIC "-//W3C//DTD SVG 20010904//EN"
 "http://www.w3.org/TR/2001/REC-SVG-20010904/DTD/svg10.dtd">
<svg version="1.0" xmlns="http://www.w3.org/2000/svg"
 width="1200.000000pt" height="1200.000000pt" viewBox="0 0 1200.000000 1200.000000"
 preserveAspectRatio="xMidYMid meet">

<g transform="translate(0.000000,1200.000000) scale(0.100000,-0.100000)"
fill="#000000" stroke="none">
<path d="M5730 10244 c-679 -61 -1189 -207 -1734 -496 -729 -387 -1357 -1015
-1744 -1744 -263 -495 -407 -964 -479 -1554 -25 -204 -25 -696 0 -900 98 -803
364 -1481 820 -2090 590 -787 1427 -1346 2362 -1579 372 -93 642 -126 1045
-126 325 0 448 10 740 61 648 111 1271 380 1799 777 876 658 1463 1610 1645
2667 51 292 61 415 61 740 0 325 -10 448 -61 740 -182 1057 -769 2010 -1645
2667 -604 454 -1288 723 -2079 819 -128 15 -622 27 -730 18z m796 -123 c1097
-154 2032 -681 2717 -1529 475 -589 777 -1308 884 -2102 26 -195 26 -785 0
-980 -150 -1113 -678 -2061 -1535 -2753 -589 -475 -1308 -777 -2102 -884 -195
-26 -785 -26 -980 0 -907 122 -1685 485 -2345 1095 -385 355 -743 856 -953
1332 -173 393 -280 776 -339 1210 -26 195 -26 785 0 980 122 907 485 1685
1095 2345 355 385 856 743 1332 953 394 174 802 288 1205 336 191 23 211 24
560 20 252 -2 350 -7 461 -23z"/>
<path d="M4494 8740 c-18 -12 -37 -33 -43 -48 -8 -19 -11 -315 -9 -1069 l3
-1043 33 -32 32 -33 1468 -3 c1016 -2 1478 0 1504 8 24 7 44 22 57 44 21 33
21 39 21 1070 0 1139 3 1078 -60 1111 -26 13 -205 15 -1502 15 -1459 0 -1473
-1 -1504 -20z m256 -155 c6 -8 10 -31 8 -52 -2 -32 -9 -41 -36 -55 -67 -33
-130 24 -102 92 20 48 95 57 130 15z m240 -16 c25 -59 -30 -119 -89 -97 -50
18 -66 74 -33 115 33 42 102 32 122 -18z m223 23 c10 -9 17 -29 17 -54 0 -32
-5 -41 -30 -57 -54 -32 -113 -1 -113 59 0 68 73 98 126 52z m2097 -287 c62
-32 60 -5 60 -783 0 -704 0 -709 -21 -736 -47 -60 40 -56 -1379 -56 -1429 0
-1346 -4 -1383 59 -16 27 -17 88 -17 736 0 611 2 710 15 735 33 63 -56 59
1383 60 1155 0 1317 -2 1342 -15z"/>
<path d="M4834 8078 l-9 -63 -37 -3 c-35 -3 -38 -6 -38 -33 0 -26 3 -29 31
-29 29 0 30 -1 27 -42 -3 -39 -6 -43 -30 -46 -25 -3 -28 -8 -28 -38 0 -28 4
-34 20 -34 20 0 21 -4 14 -60 l-7 -60 40 0 40 0 7 60 c7 59 8 60 38 60 21 0
29 -4 25 -14 -3 -7 -9 -34 -12 -60 l-7 -46 40 0 c40 0 41 1 47 38 13 81 14 82
45 82 28 0 30 3 30 35 0 31 -3 35 -25 35 -27 0 -29 8 -19 59 6 27 10 31 40 31
31 0 34 3 34 30 0 27 -3 30 -31 30 -34 0 -34 -2 -13 103 5 26 4 27 -34 27 -44
0 -41 4 -58 -92 -5 -33 -10 -38 -34 -38 l-27 0 12 65 13 65 -43 0 -42 0 -9
-62z m112 -159 c-3 -17 -6 -38 -6 -45 0 -8 -10 -14 -25 -14 -23 0 -25 4 -25
45 0 44 1 45 31 45 30 0 31 -2 25 -31z"/>
<path d="M6806 8089 c-24 -19 -26 -26 -26 -103 0 -68 -3 -86 -18 -99 -10 -10
-24 -17 -30 -17 -7 0 -12 -16 -12 -40 0 -27 4 -40 13 -40 32 0 47 -35 47 -113
0 -97 9 -107 96 -107 l64 0 0 35 c0 32 -3 35 -29 35 -29 0 -29 0 -33 70 -3 56
-8 74 -28 95 l-25 26 25 19 c22 17 25 27 27 97 1 43 2 81 3 86 0 4 14 7 30 7
28 0 30 3 30 35 l0 35 -54 0 c-39 0 -60 -6 -80 -21z"/>
<path d="M7030 8076 c0 -33 2 -36 30 -36 l30 0 0 -80 c0 -74 2 -83 27 -107 16
-17 21 -29 14 -31 -23 -8 -41 -62 -41 -122 l0 -60 -30 0 c-28 0 -30 -3 -30
-35 l0 -35 63 0 c86 0 97 12 97 113 0 77 13 107 46 107 9 0 14 11 14 35 0 28
-5 37 -30 50 -30 15 -30 16 -30 99 0 111 -13 128 -99 134 l-61 4 0 -36z"/>
<path d="M6083 7462 c-4 -9 -53 -133 -109 -275 -99 -251 -102 -258 -81 -266
65 -25 53 -43 167 247 58 147 105 271 105 276 0 5 -17 15 -38 22 -34 12 -39
11 -44 -4z"/>
<path d="M5715 7290 c-272 -113 -245 -98 -245 -139 l0 -37 190 -76 191 -76 -3
50 -3 50 -102 42 c-57 22 -103 43 -103 46 0 3 47 25 105 49 l105 44 0 48 c0
27 -3 49 -7 49 -5 -1 -62 -23 -128 -50z"/>
<path d="M6222 7289 l3 -51 98 -41 c53 -23 97 -44 97 -47 0 -3 -44 -24 -97
-46 l-98 -40 -3 -47 c-2 -26 1 -47 5 -47 4 0 88 32 186 71 l178 72 -3 39 -3
40 -179 74 c-99 41 -182 74 -183 74 -2 0 -3 -23 -1 -51z"/>
<path d="M6254 5636 c-37 -31 -38 -84 -4 -121 19 -20 33 -25 69 -25 49 1 71
12 89 47 19 35 14 63 -17 94 -38 38 -97 40 -137 5z"/>
<path d="M5940 5505 l0 -114 -35 21 c-51 29 -139 22 -189 -15 -120 -92 -136
-330 -31 -441 68 -70 182 -75 256 -9 15 12 17 11 23 -12 6 -24 10 -25 76 -25
l70 0 0 355 0 355 -85 0 -85 0 0 -115z m-19 -225 c17 -9 19 -22 19 -105 0 -82
-3 -98 -20 -115 -27 -27 -66 -25 -95 5 -22 21 -25 33 -25 98 0 60 4 79 21 101
22 28 64 35 100 16z"/>
<path d="M4673 5572 c-156 -56 -231 -180 -221 -364 9 -148 73 -242 195 -288
65 -24 168 -26 221 -5 49 21 112 65 112 79 0 6 -19 34 -43 61 l-44 49 -32 -23
c-43 -31 -108 -38 -148 -17 -99 51 -113 264 -22 340 46 39 91 43 149 13 l48
-25 43 50 c50 60 48 69 -30 112 -70 37 -155 44 -228 18z"/>
<path d="M5185 5411 c-47 -21 -99 -70 -122 -115 -22 -41 -29 -164 -13 -221 27
-95 133 -175 234 -175 79 0 126 19 181 75 58 58 77 108 77 202 -1 149 -104
253 -252 253 -42 0 -79 -7 -105 -19z m141 -129 c23 -15 34 -53 34 -120 0 -82
-23 -122 -69 -122 -47 0 -65 32 -69 119 -3 66 -1 80 18 104 21 27 61 36 86 19z"/>
<path d="M6772 5420 c-13 -6 -38 -21 -56 -35 l-33 -25 -6 30 c-6 30 -7 30 -77
30 l-70 0 0 -255 0 -255 85 0 85 0 0 169 c0 164 1 169 23 183 35 23 64 27 86
11 20 -13 21 -24 21 -189 l0 -174 91 0 90 0 -3 203 c-3 187 -5 205 -26 244
-12 24 -35 49 -52 58 -32 16 -122 19 -158 5z"/>
<path d="M7220 5415 c-42 -20 -77 -51 -96 -87 -30 -59 -8 -175 39 -200 18 -9
19 -12 6 -22 -51 -38 -63 -106 -27 -151 l22 -28 -27 -21 c-42 -33 -53 -78 -30
-123 26 -54 77 -76 183 -81 151 -7 264 40 302 125 53 121 -29 193 -221 193
-92 0 -115 7 -109 35 2 14 15 18 73 20 130 4 195 59 195 168 l0 57 35 0 35 0
0 60 0 60 -62 0 c-35 0 -112 2 -173 5 -88 5 -117 2 -145 -10z m138 -111 c43
-30 24 -124 -25 -124 -58 0 -86 77 -43 120 24 24 38 25 68 4z m52 -423 c16 -4
25 -14 25 -26 0 -26 -40 -45 -97 -45 -66 0 -98 14 -98 43 0 13 3 27 7 30 8 9
130 7 163 -2z"/>
<path d="M6230 5165 l0 -255 90 0 90 0 0 255 0 255 -90 0 -90 0 0 -255z"/>
<path d="M5630 4018 c0 -162 5 -309 10 -329 16 -57 60 -92 124 -97 30 -2 67
-1 82 2 25 7 26 9 19 54 -9 68 -15 82 -31 82 -28 0 -34 53 -34 316 l0 264 -85
0 -85 0 0 -292z"/>
<path d="M6520 3955 l0 -356 73 3 c66 3 72 5 75 26 4 26 14 28 33 6 21 -26 66
-44 108 -44 125 0 211 113 211 278 -1 104 -29 174 -88 219 -38 29 -51 33 -105
33 -44 0 -71 -6 -94 -20 l-33 -20 0 115 0 115 -90 0 -90 0 0 -355z m299 -1
c17 -21 21 -41 21 -95 0 -58 -4 -72 -26 -98 -28 -33 -48 -38 -89 -19 -24 11
-25 14 -25 109 0 90 2 99 22 113 34 24 73 20 97 -10z"/>
<path d="M5250 4267 c-191 -54 -284 -264 -213 -482 23 -72 111 -158 183 -179
108 -32 221 -15 293 45 41 34 41 37 -16 103 l-34 39 -47 -28 c-38 -22 -55 -27
-92 -22 -82 9 -127 76 -127 187 0 70 16 120 51 153 54 52 116 57 175 15 16
-11 32 -17 36 -12 4 5 25 31 46 57 l39 49 -25 20 c-70 56 -183 79 -269 55z"/>
<path d="M5932 3908 c3 -176 6 -208 22 -242 27 -53 68 -76 137 -76 49 0 64 5
108 35 l51 36 6 -31 7 -30 73 0 74 0 0 255 0 255 -90 0 -90 0 0 -165 c0 -152
-2 -167 -20 -185 -22 -22 -69 -27 -88 -8 -8 8 -12 64 -12 185 l0 173 -91 0
-90 0 3 -202z"/>
</g>
</svg>
